<svg xmlns="http://www.w3.org/2000/svg" viewBox="0 0 400 520" fill="none">
  <!-- Background wash -->
  <rect width="400" height="520" fill="#f5efe7"/>
  <ellipse cx="200" cy="480" rx="160" ry="40" fill="#e8ddd0" opacity="0.5"/>

  <!-- Moon -->
  <circle cx="310" cy="80" r="35" fill="#f0e6d8" stroke="#b8860b" stroke-width="0.5"/>
  <circle cx="322" cy="72" r="30" fill="#f5efe7"/>

  <!-- Stars -->
  <circle cx="60" cy="50" r="1.5" fill="#b8860b" opacity="0.6"/>
  <circle cx="120" cy="30" r="1" fill="#b8860b" opacity="0.4"/>
  <circle cx="340" cy="140" r="1.2" fill="#b8860b" opacity="0.5"/>
  <circle cx="45" cy="120" r="1" fill="#b8860b" opacity="0.3"/>
  <circle cx="250" cy="45" r="1.3" fill="#b8860b" opacity="0.5"/>
  <circle cx="170" cy="65" r="0.8" fill="#b8860b" opacity="0.3"/>
  <circle cx="85" cy="90" r="1.1" fill="#b8860b" opacity="0.4"/>

  <!-- Silhouette - figure from behind -->
  <path d="M175 200 Q180 170 200 155 Q220 170 225 200 L230 280 Q232 320 228 360 L240 460 Q200 470 160 460 L172 360 Q168 320 170 280 Z" fill="#2c2420"/>
  <!-- Head -->
  <circle cx="200" cy="142" r="28" fill="#2c2420"/>
  <!-- Hair flowing -->
  <path d="M172 140 Q160 160 155 200 Q158 220 165 240" stroke="#2c2420" stroke-width="8" fill="none" stroke-linecap="round"/>
  <path d="M228 140 Q240 160 245 200 Q242 220 235 240" stroke="#2c2420" stroke-width="8" fill="none" stroke-linecap="round"/>

  <!-- Telescope -->
  <line x1="230" y1="220" x2="290" y2="130" stroke="#b8860b" stroke-width="3" stroke-linecap="round"/>
  <ellipse cx="293" cy="126" rx="8" ry="5" fill="none" stroke="#b8860b" stroke-width="1.5" transform="rotate(-35 293 126)"/>
  <circle cx="225" cy="225" r="3" fill="#b8860b" opacity="0.6"/>

  <!-- Left fern -->
  <g transform="translate(30, 250)" stroke="#7a8c6a" stroke-width="1.5" fill="none" stroke-linecap="round">
    <path d="M50 200 Q45 150 55 80 Q58 40 50 0"/>
    <path d="M52 170 Q30 155 15 165"/>
    <path d="M53 150 Q32 132 18 140"/>
    <path d="M54 130 Q35 110 22 116"/>
    <path d="M55 110 Q38 90 28 95"/>
    <path d="M55 90 Q42 72 35 76"/>
    <path d="M54 70 Q46 55 40 58"/>
    <path d="M53 160 Q70 148 82 158"/>
    <path d="M54 140 Q72 125 83 132"/>
    <path d="M55 120 Q72 105 80 110"/>
    <path d="M55 100 Q70 86 76 90"/>
    <path d="M55 80 Q66 68 72 72"/>
  </g>

  <!-- Right fern -->
  <g transform="translate(290, 270)" stroke="#7a8c6a" stroke-width="1.5" fill="none" stroke-linecap="round">
    <path d="M50 190 Q55 140 48 70 Q45 30 50 0"/>
    <path d="M49 165 Q28 150 15 158"/>
    <path d="M48 145 Q30 128 18 134"/>
    <path d="M48 125 Q33 108 24 113"/>
    <path d="M48 105 Q36 88 30 92"/>
    <path d="M49 85 Q40 70 35 74"/>
    <path d="M50 160 Q68 148 78 155"/>
    <path d="M50 140 Q66 126 75 132"/>
    <path d="M49 120 Q64 106 72 111"/>
    <path d="M49 100 Q62 88 68 92"/>
    <path d="M49 80 Q58 70 64 73"/>
  </g>

  <!-- Small botanical details at feet -->
  <g transform="translate(140, 440)" stroke="#7a8c6a" stroke-width="1" fill="none" opacity="0.5">
    <path d="M0 20 Q5 10 3 0"/>
    <path d="M3 0 Q8 5 12 2"/>
    <path d="M3 0 Q-2 5 -5 2"/>
  </g>
  <g transform="translate(250, 445)" stroke="#7a8c6a" stroke-width="1" fill="none" opacity="0.5">
    <path d="M0 15 Q3 8 2 0"/>
    <path d="M2 0 Q6 3 9 1"/>
    <path d="M2 0 Q-1 3 -4 1"/>
  </g>

  <!-- Subtle gold dust -->
  <circle cx="150" cy="180" r="0.8" fill="#b8860b" opacity="0.2"/>
  <circle cx="260" cy="200" r="0.6" fill="#b8860b" opacity="0.15"/>
  <circle cx="180" cy="300" r="0.7" fill="#b8860b" opacity="0.2"/>
</svg>
